<svg width="24" height="24" viewBox="0 0 24 24" fill="none" xmlns="http://www.w3.org/2000/svg">
<path fill-rule="evenodd" clip-rule="evenodd" d="M12.593 23.258L12.582 23.26L12.511 23.295L12.491 23.299L12.477 23.295L12.406 23.26C12.3953 23.2567 12.3873 23.2583 12.382 23.265L12.378 23.275L12.361 23.703L12.366 23.723L12.376 23.736L12.48 23.81L12.495 23.814L12.507 23.81L12.611 23.736L12.623 23.72L12.627 23.703L12.61 23.276C12.6073 23.2653 12.6017 23.2593 12.593 23.258ZM12.858 23.145L12.845 23.147L12.66 23.24L12.65 23.25L12.647 23.261L12.665 23.691L12.67 23.703L12.678 23.71L12.879 23.803C12.8917 23.8063 12.9013 23.8037 12.908 23.795L12.912 23.781L12.878 23.167C12.8747 23.155 12.868 23.1477 12.858 23.145ZM12.143 23.147C12.1386 23.1443 12.1333 23.1435 12.1283 23.1446C12.1233 23.1457 12.1188 23.1487 12.116 23.153L12.11 23.167L12.076 23.781C12.0767 23.793 12.0823 23.801 12.093 23.805L12.108 23.803L12.309 23.71L12.319 23.702L12.323 23.691L12.34 23.261L12.337 23.249L12.327 23.239L12.143 23.147Z" fill="#1A73E8"/>
<path fill-rule="evenodd" clip-rule="evenodd" d="M12.67 2.21701L21.17 6.96701C21.4195 7.09158 21.6294 7.28324 21.776 7.52048C21.9226 7.75772 22.0002 8.03113 22 8.31001V9.75001C22 10.44 21.44 11 20.75 11H20V19H21C21.2652 19 21.5196 19.1054 21.7071 19.2929C21.8946 19.4804 22 19.7348 22 20C22 20.2652 21.8946 20.5196 21.7071 20.7071C21.5196 20.8947 21.2652 21 21 21H3C2.73478 21 2.48043 20.8947 2.29289 20.7071C2.10536 20.5196 2 20.2652 2 20C2 19.7348 2.10536 19.4804 2.29289 19.2929C2.48043 19.1054 2.73478 19 3 19H4V11H3.25C2.56 11 2 10.44 2 9.75001V8.31001C2 7.78801 2.27 7.30801 2.706 7.03601L11.329 2.21701C11.5373 2.11281 11.7671 2.05856 12 2.05856C12.2329 2.05856 12.4617 2.11281 12.67 2.21701ZM17 11H7V19H9V13H11V19H13V13H15V19H17V11ZM12 6.00001C11.7348 6.00001 11.4804 6.10537 11.2929 6.29291C11.1054 6.48044 11 6.7348 11 7.00001C11 7.26523 11.1054 7.51958 11.2929 7.70712C11.4804 7.89466 11.7348 8.00001 12 8.00001C12.2652 8.00001 12.5196 7.89466 12.7071 7.70712C12.8946 7.51958 13 7.26523 13 7.00001C13 6.7348 12.8946 6.48044 12.7071 6.29291C12.5196 6.10537 12.2652 6.00001 12 6.00001Z" fill="#1A73E8"/>
</svg>
