<svg width="24" height="24" viewBox="0 0 24 24" fill="none" xmlns="http://www.w3.org/2000/svg">
<path d="M21 16.143V17.5C21 18.314 20.619 19.01 20.09 19.557C19.567 20.099 18.857 20.541 18.058 20.891C16.456 21.591 14.314 22 12 22C9.686 22 7.544 21.592 5.942 20.891C5.143 20.541 4.433 20.099 3.91 19.557C3.425 19.057 3.065 18.429 3.008 17.701L3 17.5V16.143C3.46467 16.4083 3.96267 16.64 4.494 16.838C6.524 17.589 9.179 18.008 12 18.008C14.821 18.008 17.476 17.589 19.506 16.838C19.9047 16.69 20.2843 16.5223 20.645 16.335L21 16.143ZM3 10.643C3.46467 10.9083 3.96267 11.14 4.494 11.338C6.524 12.089 9.179 12.508 12 12.508C14.821 12.508 17.476 12.089 19.506 11.338C20.0223 11.1478 20.522 10.9154 21 10.643V13.748C20.3362 14.2609 19.5985 14.6702 18.812 14.962C17.057 15.612 14.648 16.009 12 16.009C9.353 16.009 6.944 15.612 5.188 14.962C4.40151 14.6702 3.66379 14.2609 3 13.748V10.643ZM12 3C14.314 3 16.456 3.408 18.058 4.109C18.857 4.459 19.567 4.901 20.09 5.443C20.575 5.943 20.935 6.571 20.992 7.299L21 7.5V8.248C20.3362 8.76091 19.5985 9.17023 18.812 9.462C17.057 10.112 14.648 10.509 12 10.509C9.353 10.509 6.944 10.112 5.188 9.462C4.51199 9.21085 3.8716 8.87267 3.283 8.456L3 8.248V7.5C3 6.686 3.381 5.99 3.91 5.443C4.433 4.901 5.143 4.459 5.942 4.109C7.544 3.409 9.686 3 12 3Z" fill="#1A73E8"/>
</svg>
