<svg width="20" height="20" viewBox="0 0 24 24" fill="currentColor" xmlns="http://www.w3.org/2000/svg">
<path fill-rule="evenodd" clip-rule="evenodd" d="M13.228 2.688C12.8769 2.4149 12.4448 2.26662 12 2.26662C11.5552 2.26662 11.1231 2.4149 10.772 2.688L2.38801 9.208C1.63601 9.795 2.05001 11 3.00301 11H4.09501L4.91501 19.199C4.96436 19.6925 5.19532 20.1501 5.56305 20.4829C5.93078 20.8157 6.40905 21 6.90501 21H17.095C17.591 21 18.0692 20.8157 18.437 20.4829C18.8047 20.1501 19.0357 19.6925 19.085 19.199L19.905 11H20.997C21.949 11 22.365 9.795 21.612 9.209L13.228 2.688ZM5.99601 9.91C5.98314 9.77706 5.94377 9.64804 5.88023 9.53057C5.81668 9.41309 5.73024 9.30953 5.62601 9.226L12 4.267L18.374 9.22501C18.2698 9.30853 18.1833 9.41209 18.1198 9.52956C18.0562 9.64704 18.0169 9.77606 18.004 9.90901L17.095 19H6.90501L5.99601 9.91ZM10.5 13C10.5 12.6022 10.658 12.2206 10.9394 11.9393C11.2207 11.658 11.6022 11.5 12 11.5C12.3978 11.5 12.7794 11.658 13.0607 11.9393C13.342 12.2206 13.5 12.6022 13.5 13C13.5 13.3978 13.342 13.7794 13.0607 14.0607C12.7794 14.342 12.3978 14.5 12 14.5C11.6022 14.5 11.2207 14.342 10.9394 14.0607C10.658 13.7794 10.5 13.3978 10.5 13ZM12 9.5C11.0718 9.5 10.1815 9.86875 9.52514 10.5251C8.86876 11.1815 8.50001 12.0717 8.50001 13C8.50001 13.9283 8.86876 14.8185 9.52514 15.4749C10.1815 16.1313 11.0718 16.5 12 16.5C12.9283 16.5 13.8185 16.1313 14.4749 15.4749C15.1313 14.8185 15.5 13.9283 15.5 13C15.5 12.0717 15.1313 11.1815 14.4749 10.5251C13.8185 9.86875 12.9283 9.5 12 9.5Z" fill="currentColor"/>
</svg>
