<svg width="24" height="24" viewBox="0 0 24 24" fill="none" xmlns="http://www.w3.org/2000/svg">
<path fill-rule="evenodd" clip-rule="evenodd" d="M13.228 2.688C12.8769 2.4149 12.4448 2.26662 12 2.26662C11.5552 2.26662 11.1231 2.4149 10.772 2.688L2.38801 9.208C1.63601 9.795 2.05001 11 3.00301 11H4.09501L4.91501 19.199C4.96436 19.6925 5.19532 20.1501 5.56305 20.4829C5.93078 20.8157 6.40905 21 6.90501 21H17.095C17.591 21 18.0692 20.8157 18.437 20.4829C18.8047 20.1501 19.0357 19.6925 19.085 19.199L19.905 11H20.997C21.949 11 22.365 9.795 21.612 9.209L13.228 2.688ZM12 16C12.7957 16 13.5587 15.6839 14.1213 15.1213C14.6839 14.5587 15 13.7957 15 13C15 12.2044 14.6839 11.4413 14.1213 10.8787C13.5587 10.3161 12.7957 10 12 10C11.2044 10 10.4413 10.3161 9.87869 10.8787C9.31608 11.4413 9.00001 12.2044 9.00001 13C9.00001 13.7957 9.31608 14.5587 9.87869 15.1213C10.4413 15.6839 11.2044 16 12 16Z" fill="#1A73E8"/>
</svg>
