<svg width="55" height="55" viewBox="0 0 55 55" fill="none" xmlns="http://www.w3.org/2000/svg">
<rect width="55" height="55" rx="8" fill="#1A73E8"/>
<path d="M32.128 27.649L22.2506 17.3262C21.4997 16.541 20.5559 15.9537 19.5039 15.6834C17.8304 15.2536 15.7137 15.56 15.5907 19.7734C15.404 26.2084 15.5589 33.7967 15.5864 35.0203C15.5886 35.1203 15.5864 35.2182 15.5864 35.3161C15.5992 36.3716 15.6607 40.2615 19.5442 39.3678C20.5792 39.1294 21.521 38.5847 22.2824 37.8441C22.9123 37.2334 23.0226 37.0078 23.0226 37.0078" stroke="white" stroke-width="2" stroke-miterlimit="10" stroke-linecap="round"/>
<path d="M22.8741 27.351L32.7494 37.6738C33.5003 38.459 34.4441 39.0464 35.4961 39.3166C37.1696 39.7465 39.2863 39.44 39.4093 35.2266C39.596 28.7916 39.4411 21.2033 39.4136 19.9797C39.4114 19.8797 39.4136 19.7818 39.4136 19.6839C39.4008 18.6285 39.3393 14.7385 35.4558 15.6323C34.4208 15.8706 33.4791 16.4154 32.7176 17.1559C32.0877 17.7666 31.9774 17.9922 31.9774 17.9922" stroke="white" stroke-width="2" stroke-miterlimit="10" stroke-linecap="round"/>
</svg>
