<svg width="24" height="24" viewBox="0 0 24 24" fill="none" xmlns="http://www.w3.org/2000/svg">
<path fill-rule="evenodd" clip-rule="evenodd" d="M12.593 23.258L12.582 23.26L12.511 23.295L12.491 23.299L12.477 23.295L12.406 23.26C12.3953 23.2567 12.3873 23.2583 12.382 23.265L12.378 23.275L12.361 23.703L12.366 23.723L12.376 23.736L12.48 23.81L12.495 23.814L12.507 23.81L12.611 23.736L12.623 23.72L12.627 23.703L12.61 23.276C12.6073 23.2653 12.6017 23.2593 12.593 23.258ZM12.858 23.145L12.845 23.147L12.66 23.24L12.65 23.25L12.647 23.261L12.665 23.691L12.67 23.703L12.678 23.71L12.879 23.803C12.8917 23.8063 12.9013 23.8037 12.908 23.795L12.912 23.781L12.878 23.167C12.8747 23.155 12.868 23.1477 12.858 23.145ZM12.143 23.147C12.1386 23.1443 12.1333 23.1435 12.1283 23.1446C12.1233 23.1457 12.1188 23.1487 12.116 23.153L12.11 23.167L12.076 23.781C12.0767 23.793 12.0823 23.801 12.093 23.805L12.108 23.803L12.309 23.71L12.319 23.702L12.323 23.691L12.34 23.261L12.337 23.249L12.327 23.239L12.143 23.147Z" fill="black" fill-opacity="0.5"/>
<path fill-rule="evenodd" clip-rule="evenodd" d="M14.41 2.293C15.3784 2.53367 16.3053 2.91793 17.16 3.433C17.3313 3.53636 17.4676 3.68871 17.5514 3.87036C17.6352 4.05202 17.6625 4.25463 17.63 4.452C17.517 5.141 17.689 5.668 18.01 5.99C18.332 6.312 18.86 6.483 19.548 6.37C19.7455 6.33722 19.9483 6.36449 20.1302 6.44829C20.312 6.53209 20.4646 6.66855 20.568 6.84C21.0831 7.69466 21.4673 8.62159 21.708 9.59C21.7563 9.78434 21.7451 9.9887 21.6759 10.1766C21.6067 10.3645 21.4827 10.5274 21.32 10.644C20.752 11.051 20.5 11.544 20.5 12C20.5 12.456 20.752 12.95 21.32 13.357C21.4826 13.4736 21.6064 13.6362 21.6756 13.8239C21.7448 14.0117 21.7561 14.2158 21.708 14.41C21.4673 15.3784 21.0831 16.3053 20.568 17.16C20.4646 17.3315 20.312 17.4679 20.1302 17.5517C19.9483 17.6355 19.7455 17.6628 19.548 17.63C18.859 17.517 18.333 17.689 18.011 18.01C17.689 18.332 17.517 18.86 17.631 19.548C17.6638 19.7455 17.6365 19.9484 17.5527 20.1302C17.4689 20.3121 17.3324 20.4646 17.161 20.568C16.3057 21.0833 15.3781 21.4675 14.409 21.708C14.2148 21.7561 14.0106 21.7448 13.8229 21.6756C13.6352 21.6065 13.4725 21.4826 13.356 21.32C12.95 20.752 12.456 20.5 12 20.5C11.545 20.5 11.05 20.752 10.644 21.32C10.5274 21.4826 10.3647 21.6065 10.177 21.6756C9.98932 21.7448 9.78517 21.7561 9.59098 21.708C8.62187 21.4675 7.69425 21.0833 6.83898 20.568C6.66752 20.4646 6.53106 20.3121 6.44726 20.1302C6.36347 19.9484 6.33619 19.7455 6.36898 19.548C6.48298 18.86 6.31198 18.333 5.98898 18.011C5.66798 17.689 5.14098 17.517 4.45198 17.631C4.2546 17.6636 4.05199 17.6362 3.87034 17.5524C3.68868 17.4686 3.53633 17.3323 3.43298 17.161C2.91771 16.3057 2.53345 15.3781 2.29298 14.409C2.2449 14.2148 2.25618 14.0107 2.32534 13.8229C2.39451 13.6352 2.51839 13.4726 2.68098 13.356C3.24798 12.95 3.50098 12.456 3.50098 12C3.50098 11.545 3.24798 11.05 2.68098 10.644C2.51839 10.5274 2.39451 10.3648 2.32534 10.1771C2.25618 9.98934 2.2449 9.78519 2.29298 9.591C2.53355 8.62225 2.91781 7.69497 3.43298 6.84C3.53633 6.66873 3.68868 6.53238 3.87034 6.4486C4.05199 6.36481 4.2546 6.33743 4.45198 6.37C5.14098 6.483 5.66798 6.312 5.98998 5.99C6.31198 5.668 6.48298 5.14 6.36998 4.452C6.33741 4.25463 6.36478 4.05202 6.44857 3.87036C6.53236 3.68871 6.6687 3.53636 6.83998 3.433C7.69463 2.91793 8.62156 2.53367 9.58998 2.293C9.78431 2.24471 9.98867 2.25588 10.1766 2.32505C10.3645 2.39423 10.5273 2.51823 10.644 2.681C11.051 3.248 11.544 3.501 12 3.501C12.456 3.501 12.95 3.248 13.357 2.681C13.4735 2.51842 13.6362 2.39454 13.8239 2.32537C14.0116 2.2562 14.2158 2.24493 14.41 2.293ZM14.512 4.403C13.855 5.06 12.992 5.5 12 5.5C11.008 5.5 10.145 5.061 9.48798 4.402C9.11611 4.52526 8.7538 4.67566 8.40398 4.852C8.40498 5.782 8.10498 6.702 7.40398 7.404C6.70298 8.105 5.78198 8.405 4.85198 8.404C4.67598 8.75267 4.52598 9.114 4.40198 9.488C5.06098 10.145 5.49998 11.008 5.49998 12C5.49998 12.992 5.06098 13.855 4.40198 14.512C4.52664 14.8867 4.67664 15.2483 4.85198 15.597C5.78198 15.595 6.70198 15.895 7.40398 16.597C8.10498 17.297 8.40498 18.218 8.40398 19.148C8.75198 19.324 9.11331 19.474 9.48798 19.598C10.145 18.939 11.008 18.5 12 18.5C12.992 18.5 13.855 18.94 14.512 19.598C14.8842 19.4748 15.2468 19.3244 15.597 19.148C15.595 18.218 15.895 17.298 16.597 16.596C17.297 15.895 18.218 15.596 19.148 15.596C19.324 15.248 19.474 14.8867 19.598 14.512C18.939 13.855 18.5 12.992 18.5 12C18.5 11.008 18.94 10.145 19.598 9.488C19.4747 9.11614 19.3243 8.75383 19.148 8.404C18.218 8.405 17.298 8.105 16.596 7.404C15.895 6.703 15.596 5.782 15.596 4.852C15.2461 4.67566 14.8838 4.52626 14.512 4.403ZM12 8C13.0608 8 14.0783 8.42143 14.8284 9.17158C15.5785 9.92172 16 10.9391 16 12C16 13.0609 15.5785 14.0783 14.8284 14.8284C14.0783 15.5786 13.0608 16 12 16C10.9391 16 9.92169 15.5786 9.17155 14.8284C8.4214 14.0783 7.99998 13.0609 7.99998 12C7.99998 10.9391 8.4214 9.92172 9.17155 9.17158C9.92169 8.42143 10.9391 8 12 8ZM12 10C11.4695 10 10.9608 10.2107 10.5858 10.5858C10.2107 10.9609 9.99998 11.4696 9.99998 12C9.99998 12.5304 10.2107 13.0391 10.5858 13.4142C10.9608 13.7893 11.4695 14 12 14C12.5304 14 13.0391 13.7893 13.4142 13.4142C13.7893 13.0391 14 12.5304 14 12C14 11.4696 13.7893 10.9609 13.4142 10.5858C13.0391 10.2107 12.5304 10 12 10Z" fill="#5F6368"/>
</svg>
