<svg width="24" height="24" viewBox="0 0 24 24" fill="none" xmlns="http://www.w3.org/2000/svg">
<g clip-path="url(#clip0_178_191)">
<path d="M11.996 13V16C11.996 16.2652 12.1013 16.5196 12.2889 16.7071C12.4764 16.8946 12.7308 17 12.996 17H14.996V18.793C14.996 20.129 16.612 20.799 17.556 19.853L20.409 17.003H20.411L22.351 15.063C22.644 14.77 22.791 14.385 22.79 14.001C22.79 13.617 22.644 13.233 22.35 12.939L20.41 11L17.557 8.149C16.612 7.204 14.997 7.873 14.997 9.209V11.002H14V11H12V8.003C12 7.73778 11.8946 7.48343 11.7071 7.29589C11.5196 7.10836 11.2652 7.003 11 7.003H8.99999V5.209C8.99999 3.873 7.38399 3.204 6.43999 4.149L3.58599 7H3.58399L1.64399 8.94C1.36297 9.2212 1.20507 9.60245 1.20499 10C1.20499 10.385 1.35099 10.77 1.64499 11.063L3.58499 13.003L6.43799 15.853C7.38399 16.8 8.99999 16.13 8.99999 14.794V13H11.996Z" fill="#1A73E8"/>
</g>
<defs>
<clipPath id="clip0_178_191">
<rect width="24" height="24" fill="white"/>
</clipPath>
</defs>
</svg>
